<svg xmlns="http://www.w3.org/2000/svg" xmlns:xlink="http://www.w3.org/1999/xlink" viewBox="0 0 350 270" width="350" height="270"><path d="M 89.120,32.076 C 89.120,37.673 89.120,37.673 89.120,43.269" stroke-width="5.401" stroke="white" fill="none" stroke-linecap="round"></path><path d="M 89.120,43.269 C 89.120,61.053 89.120,61.053 89.120,78.837" stroke-width="2.190" stroke="white" fill="none" stroke-linecap="round"></path><path d="M 89.120,78.837 C 89.120,104.928 89.120,104.928 89.120,131.019" stroke-width="1.499" stroke="white" fill="none" stroke-linecap="round"></path><path d="M 89.120,131.019 C 89.120,152.328 89.120,152.328 89.120,173.636" stroke-width="1.571" stroke="white" fill="none" stroke-linecap="round"></path><path d="M 89.120,173.636 C 89.120,186.044 89.120,186.044 89.120,198.451" stroke-width="2.053" stroke="white" fill="none" stroke-linecap="round"></path><path d="M 89.120,198.451 C 89.120,203.471 89.120,203.471 89.120,208.492" stroke-width="2.868" stroke="white" fill="none" stroke-linecap="round"></path><path d="M 89.120,208.492 C 89.120,211.546 89.120,211.546 89.120,214.601" stroke-width="3.686" stroke="white" fill="none" stroke-linecap="round"></path><path d="M 89.120,214.601 C 89.120,221.197 89.120,217.313 89.120,220.026" stroke-width="4.032" stroke="white" fill="none" stroke-linecap="round"></path><path d="M 89.120,220.026 C 88.693,213.177 89.120,217.080 89.120,206.367" stroke-width="4.042" stroke="white" fill="none" stroke-linecap="round"></path><path d="M 89.120,206.367 C 89.165,192.240 89.994,192.434 91.722,178.542" stroke-width="2.480" stroke="white" fill="none" stroke-linecap="round"></path><path d="M 91.722,178.542 C 95.854,157.588 95.616,157.683 102.022,137.252" stroke-width="1.853" stroke="white" fill="none" stroke-linecap="round"></path><path d="M 102.022,137.252 C 108.187,117.053 108.118,117.157 116.250,97.681" stroke-width="1.574" stroke="white" fill="none" stroke-linecap="round"></path><path d="M 116.250,97.681 C 121.497,86.332 121.028,86.201 127.703,75.550" stroke-width="1.965" stroke="white" fill="none" stroke-linecap="round"></path><path d="M 127.703,75.550 C 131.874,68.484 131.764,68.495 136.784,62.007" stroke-width="2.565" stroke="white" fill="none" stroke-linecap="round"></path><path d="M 136.784,62.007 C 140.294,54.874 139.452,58.488 142.859,55.558" stroke-width="3.223" stroke="white" fill="none" stroke-linecap="round"></path><path d="M 142.859,55.558 C 147.071,59.844 146.021,56.402 148.239,65.062" stroke-width="3.883" stroke="white" fill="none" stroke-linecap="round"></path><path d="M 148.239,65.062 C 149.205,76.353 150.664,75.892 150.045,87.654" stroke-width="2.720" stroke="white" fill="none" stroke-linecap="round"></path><path d="M 150.045,87.654 C 150.888,99.401 150.919,99.398 151.667,111.152" stroke-width="2.456" stroke="white" fill="none" stroke-linecap="round"></path><path d="M 151.667,111.152 C 152.246,119.781 152.240,119.781 152.750,128.414" stroke-width="2.731" stroke="white" fill="none" stroke-linecap="round"></path><path d="M 152.750,128.414 C 152.999,134.247 153.090,134.241 153.354,140.072" stroke-width="3.127" stroke="white" fill="none" stroke-linecap="round"></path><path d="M 153.354,140.072 C 153.001,145.390 153.520,142.804 153.792,145.529" stroke-width="3.803" stroke="white" fill="none" stroke-linecap="round"></path><path d="M 153.792,145.529 C 155.361,143.174 154.604,145.671 156.559,140.635" stroke-width="4.454" stroke="white" fill="none" stroke-linecap="round"></path><path d="M 156.559,140.635 C 158.966,134.522 159.356,134.712 161.782,128.605" stroke-width="3.475" stroke="white" fill="none" stroke-linecap="round"></path><path d="M 161.782,128.605 C 164.467,123.252 164.353,123.204 167.333,117.999" stroke-width="3.351" stroke="white" fill="none" stroke-linecap="round"></path><path d="M 167.333,117.999 C 168.898,114.022 169.291,114.409 171.429,110.919" stroke-width="3.603" stroke="white" fill="none" stroke-linecap="round"></path><path d="M 171.429,110.919 C 174.427,106.950 172.977,109.021 175.490,107.997" stroke-width="4.424" stroke="white" fill="none" stroke-linecap="round"></path><path d="M 175.490,107.997 C 176.492,112.370 177.398,109.874 177.371,116.768" stroke-width="3.877" stroke="white" fill="none" stroke-linecap="round"></path><path d="M 177.371,116.768 C 178.503,123.941 178.792,123.876 180.090,131.009" stroke-width="3.247" stroke="white" fill="none" stroke-linecap="round"></path><path d="M 180.090,131.009 C 181.151,136.788 181.362,136.677 183.090,142.242" stroke-width="3.255" stroke="white" fill="none" stroke-linecap="round"></path><path d="M 183.090,142.242 C 184.434,146.619 184.558,146.369 186.903,150.172" stroke-width="3.558" stroke="white" fill="none" stroke-linecap="round"></path><path d="M 186.903,150.172 C 188.906,153.759 188.778,152.871 191.779,154.746" stroke-width="3.881" stroke="white" fill="none" stroke-linecap="round"></path><path d="M 191.779,154.746 C 195.784,155.835 194.544,155.696 198.178,154.046" stroke-width="3.971" stroke="white" fill="none" stroke-linecap="round"></path><path d="M 198.178,154.046 C 202.851,149.729 202.729,150.647 205.670,144.371" stroke-width="3.453" stroke="white" fill="none" stroke-linecap="round"></path><path d="M 205.670,144.371 C 209.282,136.219 209.759,136.598 211.994,127.784" stroke-width="2.862" stroke="white" fill="none" stroke-linecap="round"></path><path d="M 211.994,127.784 C 213.910,120.980 214.150,121.078 215.405,114.088" stroke-width="3.007" stroke="white" fill="none" stroke-linecap="round"></path><path d="M 215.405,114.088 C 217.174,105.024 216.298,109.972 216.769,105.769" stroke-width="3.497" stroke="white" fill="none" stroke-linecap="round"></path><path d="M 216.769,105.769 C 214.362,111.661 216.170,106.874 213.395,117.789" stroke-width="4.278" stroke="white" fill="none" stroke-linecap="round"></path><path d="M 213.395,117.789 C 212.785,124.759 212.314,124.643 212.674,131.734" stroke-width="3.369" stroke="white" fill="none" stroke-linecap="round"></path><path d="M 212.674,131.734 C 211.889,137.072 212.594,136.816 213.013,141.902" stroke-width="3.473" stroke="white" fill="none" stroke-linecap="round"></path><path d="M 213.013,141.902 C 214.047,146.067 213.866,145.566 216.628,148.720" stroke-width="3.692" stroke="white" fill="none" stroke-linecap="round"></path><path d="M 216.628,148.720 C 219.971,152.869 219.173,151.335 223.265,152.437" stroke-width="3.826" stroke="white" fill="none" stroke-linecap="round"></path><path d="M 223.265,152.437 C 229.740,150.940 228.301,151.776 233.288,146.536" stroke-width="3.472" stroke="white" fill="none" stroke-linecap="round"></path><path d="M 233.288,146.536 C 241.443,135.468 241.524,136.310 246.833,123.176" stroke-width="2.376" stroke="white" fill="none" stroke-linecap="round"></path><path d="M 246.833,123.176 C 251.928,109.675 252.565,110.104 255.532,95.809" stroke-width="2.170" stroke="white" fill="none" stroke-linecap="round"></path><path d="M 255.532,95.809 C 257.220,86.474 257.913,86.648 258.804,77.122" stroke-width="2.437" stroke="white" fill="none" stroke-linecap="round"></path><path d="M 258.804,77.122 C 260.001,70.343 259.952,70.337 260.995,63.535" stroke-width="2.871" stroke="white" fill="none" stroke-linecap="round"></path><path d="M 260.995,63.535 C 262.514,55.717 261.498,60.094 261.797,56.624" stroke-width="3.573" stroke="white" fill="none" stroke-linecap="round"></path><path d="M 261.797,56.624 C 258.752,62.512 260.445,58.336 256.857,68.774" stroke-width="3.878" stroke="white" fill="none" stroke-linecap="round"></path><path d="M 256.857,68.774 C 253.586,80.066 253.466,79.972 251.225,91.543" stroke-width="2.677" stroke="white" fill="none" stroke-linecap="round"></path><path d="M 251.225,91.543 C 249.060,101.904 249.102,101.860 247.888,112.362" stroke-width="2.559" stroke="white" fill="none" stroke-linecap="round"></path><path d="M 247.888,112.362 C 247.549,118.970 247.152,118.924 247.410,125.582" stroke-width="2.954" stroke="white" fill="none" stroke-linecap="round"></path><path d="M 247.410,125.582 C 246.779,130.475 247.310,130.356 247.410,135.133" stroke-width="3.330" stroke="white" fill="none" stroke-linecap="round"></path><path d="M 247.410,135.133 C 247.408,140.405 247.775,137.826 249.402,140.283" stroke-width="4.249" stroke="white" fill="none" stroke-linecap="round"></path><path d="M 249.402,140.283 C 255.328,137.832 253.949,140.004 260.493,134.329" stroke-width="4.123" stroke="white" fill="none" stroke-linecap="round"></path><path d="M 260.493,134.329 C 263.336,131.532 263.764,132.111 266.276,128.841" stroke-width="3.913" stroke="white" fill="none" stroke-linecap="round"></path><path d="M 266.276,128.841 C 269.634,123.529 268.997,126.350 271.814,123.965" stroke-width="4.368" stroke="white" fill="none" stroke-linecap="round"></path><path d="M 271.814,123.965 C 273.618,127.185 273.980,124.399 274.968,130.580" stroke-width="4.739" stroke="white" fill="none" stroke-linecap="round"></path><path d="M 274.968,130.580 C 275.329,133.528 276.018,133.219 276.614,136.033" stroke-width="4.358" stroke="white" fill="none" stroke-linecap="round"></path><path d="M 276.614,136.033 C 278.054,140.717 278.455,139.622 281.220,142.767" stroke-width="4.482" stroke="white" fill="none" stroke-linecap="round"></path><path d="M 281.220,142.767 C 285.305,144.138 284.467,144.869 289.440,144.337" stroke-width="4.485" stroke="white" fill="none" stroke-linecap="round"></path><path d="M 289.440,144.337 C 293.272,144.007 293.238,144.520 297.086,143.530" stroke-width="4.090" stroke="white" fill="none" stroke-linecap="round"></path><path d="M 297.086,143.530 C 300.862,142.901 300.881,143.055 304.657,142.432" stroke-width="3.887" stroke="white" fill="none" stroke-linecap="round"></path><path d="M 304.657,142.432 C 307.431,142.104 307.426,142.091 310.214,141.909" stroke-width="4.163" stroke="white" fill="none" stroke-linecap="round"></path><path d="M 310.214,141.909 C 312.830,141.673 312.827,141.725 315.448,141.675" stroke-width="4.624" stroke="white" fill="none" stroke-linecap="round"></path><path d="M 315.448,141.675 C 321.417,141.540 321.400,141.681 327.356,141.925" stroke-width="4.293" stroke="white" fill="none" stroke-linecap="round"></path><path d="M 327.356,141.925 C 336.605,142.613 336.601,142.523 345.817,143.642" stroke-width="2.954" stroke="white" fill="none" stroke-linecap="round"></path><path d="M 345.817,143.642 C 356.039,145.079 356.072,144.787 366.289,146.274" stroke-width="2.652" stroke="white" fill="none" stroke-linecap="round"></path><path d="M 366.289,146.274 C 379.624,147.723 379.612,147.827 392.963,149.138" stroke-width="2.304" stroke="white" fill="none" stroke-linecap="round"></path><path d="M 392.963,149.138 C 395.974,149.231 395.940,149.454 398.920,149.735" stroke-width="3.351" stroke="white" fill="none" stroke-linecap="round"></path><path d="M 398.920,149.735 C 403.350,150.343 403.269,150.479 407.552,151.635" stroke-width="4.043" stroke="white" fill="none" stroke-linecap="round"></path><circle r="1.5" cx="323.72430419921875" cy="105.8974609375" fill="white"></circle></svg>